<svg width="274" height="60" viewBox="0 0 274 60" fill="none" xmlns="http://www.w3.org/2000/svg">
<path fill-rule="evenodd" clipRule="evenodd" d="M72.5825 30C72.5825 46.5685 56.383 60 36.4001 60C17.4414 60 1.8884 47.9102 0.34375 32.5217H48.1686V27.4783H0.34375C1.8884 12.0898 17.4414 0 36.4001 0C56.383 0 72.5825 13.4314 72.5825 30ZM206.724 54.5651C219.261 54.5651 227.484 48.9525 227.484 40.5001C227.484 32.6563 221.296 28.9372 211.935 27.6525L203.63 26.5029C197.281 25.6239 193.047 23.3248 193.047 18.2534C193.047 13.1144 197.769 9.19249 206.724 9.19249C215.435 9.19249 219.913 12.8439 220.401 18.0506H226.67C226.182 11.1535 219.831 5.0001 206.805 5.0001C193.942 5.0001 186.86 11.0182 186.86 18.4563C186.86 26.3677 193.291 30.0191 202.084 31.2363L210.469 32.3182C217.47 33.3325 221.378 35.6991 221.378 40.703C221.378 46.5858 215.598 50.3725 206.805 50.3725C197.688 50.3725 191.988 46.7211 191.5 40.5001H185.313C185.801 48.6144 193.291 54.5651 206.724 54.5651ZM114.297 53.6182H91.5019V6.0144H113.483C123.171 6.0144 129.928 10.7477 129.928 18.3211C129.928 23.7982 126.183 27.4496 120.159 28.6667V28.8696C127.323 30.0191 131.719 34.0763 131.719 40.4325C131.719 48.6144 124.474 53.6182 114.297 53.6182ZM112.669 26.9087C119.589 26.9087 123.823 23.7982 123.823 18.9296V18.2534C123.823 13.3849 119.589 10.342 112.669 10.342H97.6081V26.9087H112.669ZM113.402 49.2905C120.973 49.2905 125.614 45.842 125.614 40.5677V39.8915C125.614 34.4144 120.892 31.1011 113.32 31.1011H97.6081V49.2905H113.402ZM181.027 53.6182H174.513L169.629 40.703H146.833L141.949 53.6182H135.761L154.568 6.0144H161.976L181.027 53.6182ZM158.557 11.221H158.068L148.462 36.443H168.082L158.557 11.221ZM236.655 53.6182V6.0144H273.453V10.4096H242.761V26.7734H271.011V31.1011H242.761V49.223H273.453V53.6182H236.655Z" fill="#2D2D2D"/>
</svg>
